<svg width="28" height="28" viewBox="0 0 28 28" fill="none" xmlns="http://www.w3.org/2000/svg">
<path d="M21.6529 0.302759L0.358311 0.358013L0.303058 21.6526C0.273021 21.8745 0.291 22.1002 0.355781 22.3145C0.420563 22.5288 0.530634 22.7267 0.678542 22.8947C0.826448 23.0628 1.00874 23.1971 1.21307 23.2886C1.41741 23.3801 1.63901 23.4266 1.86289 23.425C2.08676 23.4234 2.30768 23.3738 2.51069 23.2794C2.7137 23.185 2.89405 23.048 3.03954 22.8779C3.18503 22.7077 3.29226 22.5083 3.35398 22.2931C3.41569 22.0779 3.43044 21.8519 3.39724 21.6305L3.46354 5.67337L24.6034 26.8133C24.8965 27.1063 25.294 27.271 25.7085 27.271C26.123 27.271 26.5205 27.1063 26.8136 26.8133C27.1066 26.5202 27.2713 26.1227 27.2713 25.7082C27.2713 25.2937 27.1066 24.8962 26.8136 24.6031L5.67367 3.46324L21.6308 3.39694C22.0455 3.39547 22.4427 3.22933 22.7349 2.93505C23.0271 2.64076 23.1904 2.24246 23.1889 1.82775C23.1875 1.41304 23.0213 1.0159 22.727 0.723688C22.4328 0.431479 22.0345 0.268144 21.6198 0.269608L21.6529 0.302759Z" fill="white"/>
</svg>
