<svg width="20" height="20" viewBox="0 0 20 20" fill="none" xmlns="http://www.w3.org/2000/svg">
<path d="M9.99998 9.16659C10.442 9.16659 10.8659 8.99099 11.1785 8.67843C11.4911 8.36587 11.6666 7.94195 11.6666 7.49992C11.6666 7.05789 11.4911 6.63397 11.1785 6.32141C10.8659 6.00885 10.442 5.83325 9.99998 5.83325C9.55795 5.83325 9.13403 6.00885 8.82147 6.32141C8.50891 6.63397 8.33331 7.05789 8.33331 7.49992C8.33331 7.94195 8.50891 8.36587 8.82147 8.67843C9.13403 8.99099 9.55795 9.16659 9.99998 9.16659Z" fill="#1F1F1F"/>
<path fill-rule="evenodd" clip-rule="evenodd" d="M15 7.5C14.9998 8.68164 14.5813 9.82507 13.8187 10.7276C13.056 11.6302 11.9984 12.2336 10.8333 12.4308V16.6667H13.3333C13.5543 16.6667 13.7663 16.7545 13.9226 16.9107C14.0789 17.067 14.1667 17.279 14.1667 17.5C14.1667 17.721 14.0789 17.933 13.9226 18.0893C13.7663 18.2455 13.5543 18.3333 13.3333 18.3333H6.66666C6.44564 18.3333 6.23368 18.2455 6.0774 18.0893C5.92112 17.933 5.83332 17.721 5.83332 17.5C5.83332 17.279 5.92112 17.067 6.0774 16.9107C6.23368 16.7545 6.44564 16.6667 6.66666 16.6667H9.16666V12.4308C7.93327 12.2185 6.82428 11.5516 6.05861 10.5616C5.29294 9.57161 4.92624 8.33055 5.03089 7.08341C5.13555 5.83626 5.70395 4.67367 6.62389 3.82513C7.54384 2.97659 8.74847 2.50377 9.99999 2.5C11.3261 2.5 12.5978 3.02678 13.5355 3.96447C14.4732 4.90215 15 6.17392 15 7.5ZM9.99999 10.8333C10.884 10.8333 11.7319 10.4821 12.357 9.85702C12.9821 9.2319 13.3333 8.38405 13.3333 7.5C13.3333 6.61594 12.9821 5.7681 12.357 5.14298C11.7319 4.51786 10.884 4.16667 9.99999 4.16667C9.11593 4.16667 8.26809 4.51786 7.64297 5.14298C7.01784 5.7681 6.66666 6.61594 6.66666 7.5C6.66666 8.38405 7.01784 9.2319 7.64297 9.85702C8.26809 10.4821 9.11593 10.8333 9.99999 10.8333Z" fill="#1F1F1F"/>
</svg>
