<svg width="20" height="20" viewBox="0 0 20 20" fill="none" xmlns="http://www.w3.org/2000/svg">
<path d="M9.99998 9.99992C9.08331 9.99992 8.29859 9.67353 7.64581 9.02075C6.99304 8.36797 6.66665 7.58325 6.66665 6.66659C6.66665 5.74992 6.99304 4.9652 7.64581 4.31242C8.29859 3.65964 9.08331 3.33325 9.99998 3.33325C10.9166 3.33325 11.7014 3.65964 12.3541 4.31242C13.0069 4.9652 13.3333 5.74992 13.3333 6.66659C13.3333 7.58325 13.0069 8.36797 12.3541 9.02075C11.7014 9.67353 10.9166 9.99992 9.99998 9.99992ZM3.33331 16.6666V14.3333C3.33331 13.861 3.45498 13.4271 3.69831 13.0316C3.94165 12.636 4.26442 12.3338 4.66665 12.1249C5.52776 11.6944 6.40276 11.3716 7.29165 11.1566C8.18054 10.9416 9.08331 10.8338 9.99998 10.8333C10.9166 10.8333 11.8194 10.941 12.7083 11.1566C13.5972 11.3721 14.4722 11.6949 15.3333 12.1249C15.7361 12.3333 16.0591 12.6355 16.3025 13.0316C16.5458 13.4277 16.6672 13.8616 16.6666 14.3333V16.6666H3.33331Z" fill="#1F1F1F"/>
</svg>
